<svg width="80" height="76" viewBox="0 0 80 76" fill="none" xmlns="http://www.w3.org/2000/svg">
<path d="M67.732 17.4521C67.7748 17.2595 67.799 17.0624 67.799 16.863C67.799 16.1425 67.5057 15.4384 66.9964 14.9261C66.4867 14.4167 65.7799 14.1234 65.0594 14.1234C64.3389 14.1234 63.632 14.4167 63.1224 14.9261C62.6131 15.4357 62.3197 16.1425 62.3197 16.863C62.3197 17.0624 62.344 17.2595 62.3868 17.4521H67.732Z" fill="#FA26A0"/>
<path d="M0 32.292V64.0845C0 70.1524 4.93657 75.089 11.0044 75.089H68.9953C75.0634 75.089 80 70.1524 80 64.0845V32.292C80 26.2241 75.0634 21.2875 68.9953 21.2875H11.0044C4.93657 21.2875 0 26.2243 0 32.292ZM40 31.2347C49.3481 31.2347 56.9538 38.8401 56.9538 48.1883C56.9538 57.5364 49.3484 65.1418 40 65.1418C30.6516 65.1418 23.0465 57.5364 23.0465 48.1883C23.0465 38.8401 30.6519 31.2347 40 31.2347Z" fill="#FA26A0"/>
<path d="M17.6143 17.4521C17.6571 17.2595 17.6816 17.0624 17.6816 16.863C17.6816 16.1425 17.3883 15.4384 16.876 14.9261C16.3663 14.4167 15.6622 14.1234 14.939 14.1234C14.2214 14.1234 13.5146 14.4167 13.0023 14.9261C12.4927 15.4384 12.1993 16.1425 12.1993 16.863C12.1993 17.0618 12.2239 17.2593 12.2669 17.4521H17.6143Z" fill="#FA26A0"/>
<path d="M29.6404 17.4521V9.22101C29.6404 7.66007 30.9102 6.3903 32.4711 6.3903H47.5289C49.0898 6.3903 50.3596 7.66007 50.3596 9.22101V17.4518H55.8389V9.22101C55.8389 4.63865 52.1112 0.910706 47.5289 0.910706H32.4711C27.8888 0.910706 24.1611 4.63865 24.1611 9.22101V17.4518L29.6404 17.4521Z" fill="#FA26A0"/>
<path d="M40 61.3064C47.2331 61.3064 53.1181 55.4217 53.1181 48.1883C53.1181 40.9549 47.2334 35.0702 40 35.0702C32.7666 35.0702 26.8819 40.9549 26.8819 48.1883C26.8819 55.4217 32.7669 61.3064 40 61.3064ZM34.988 46.2704H38.0822V43.1763C38.0822 42.1172 38.9409 41.2584 40 41.2584C41.0591 41.2584 41.9178 42.1172 41.9178 43.1763V46.2704H45.012C46.0711 46.2704 46.9298 47.1292 46.9298 48.1883C46.9298 49.2474 46.0711 50.1061 45.012 50.1061H41.9178V53.2003C41.9178 54.2594 41.0591 55.1181 40 55.1181C38.9409 55.1181 38.0822 54.2597 38.0822 53.2003V50.1061H34.988C33.9289 50.1061 33.0702 49.2477 33.0702 48.1883C33.0702 47.1292 33.9286 46.2704 34.988 46.2704Z" fill="#FA26A0"/>
</svg>
